<svg width="60" height="60" viewBox="0 0 60 60" fill="none" xmlns="http://www.w3.org/2000/svg">
<g filter="url(#filter0_d_0_314)">
<rect x="6" y="2" width="40" height="40" rx="10" fill="#FFD726"/>
</g>
<path d="M26.7247 24.5577L24.608 22.466L24.633 22.441C26.0448 20.8719 27.0996 19.0154 27.7247 16.9993H30.1663V15.3327H24.333V13.666H22.6663V15.3327H16.833V16.9993H26.1413C25.583 18.5993 24.6997 20.1243 23.4997 21.4577C22.7247 20.5993 22.083 19.6577 21.5747 18.666H19.908C20.5163 20.0243 21.3497 21.3077 22.3913 22.466L18.1497 26.6493L19.333 27.8327L23.4997 23.666L26.0913 26.2577L26.7247 24.5577ZM31.4163 20.3327H29.7497L25.9997 30.3327H27.6663L28.5997 27.8327H32.558L33.4997 30.3327H35.1663L31.4163 20.3327ZM29.233 26.166L30.583 22.5577L31.933 26.166H29.233Z" fill="#F14530"/>
<defs>
<filter id="filter0_d_0_314" x="0" y="0" width="60" height="60" filterUnits="userSpaceOnUse" color-interpolation-filters="sRGB">
<feFlood flood-opacity="0" result="BackgroundImageFix"/>
<feColorMatrix in="SourceAlpha" type="matrix" values="0 0 0 0 0 0 0 0 0 0 0 0 0 0 0 0 0 0 127 0" result="hardAlpha"/>
<feOffset dx="4" dy="8"/>
<feGaussianBlur stdDeviation="5"/>
<feColorMatrix type="matrix" values="0 0 0 0 0 0 0 0 0 0 0 0 0 0 0 0 0 0 0.12 0"/>
<feBlend mode="normal" in2="BackgroundImageFix" result="effect1_dropShadow_0_314"/>
<feBlend mode="normal" in="SourceGraphic" in2="effect1_dropShadow_0_314" result="shape"/>
</filter>
</defs>
</svg>
