<svg width="17" height="16" viewBox="0 0 17 16" fill="none" xmlns="http://www.w3.org/2000/svg">
<path d="M8.58508 13.2176L8.50008 13.3026L8.40658 13.2176C4.36904 9.55409 1.70002 7.13157 1.70002 4.67505C1.70002 2.97503 2.97503 1.70002 4.67505 1.70002C5.98406 1.70002 7.25907 2.55002 7.70957 3.70604H9.29059C9.7411 2.55002 11.0161 1.70002 12.3251 1.70002C14.0251 1.70002 15.3001 2.97503 15.3001 4.67505C15.3001 7.13157 12.6311 9.55409 8.58508 13.2176ZM12.3251 0C10.8461 0 9.42659 0.688507 8.50008 1.76802C7.57357 0.688507 6.15406 0 4.67505 0C2.05702 0 0 2.04852 0 4.67505C0 7.87958 2.89003 10.5061 7.26757 14.4756L8.50008 15.5977L9.73259 14.4756C14.1101 10.5061 17.0002 7.87958 17.0002 4.67505C17.0002 2.04852 14.9431 0 12.3251 0Z" fill="#D9D9D9"/>
</svg>
