<svg width="111" height="102" viewBox="0 0 111 102" fill="none" xmlns="http://www.w3.org/2000/svg">
<path d="M15.0216 64.1862L0 73.4649C2.76345 78.2122 8.25811 86.1855 17.9141 92.5943C38.054 105.962 59.5487 101.366 62.3982 100.708C83.0112 95.9498 98.0865 80.2082 103.99 63.0317C107.087 54.0227 107.194 46.0062 106.882 41C101.302 41 95.7101 41 90.1295 41C90.3768 44.4742 90.8499 57.2379 82.0434 68.8256C73.8283 79.6256 60.2584 85.8294 46.226 84.4808C25.9141 82.5171 15.9571 65.8153 15.0216 64.1862Z" fill="#2099AA"/>
<path d="M111 0H85V20H111V0Z" fill="#2099AA"/>
</svg>
