<svg width="73" height="13" viewBox="0 0 73 13" fill="none" xmlns="http://www.w3.org/2000/svg">
<g clip-path="url(#clip0_0_597)">
<path d="M2.56693 12.6342C2.99967 10.1553 3.31382 8.35967 3.33996 8.23823C3.34335 8.22233 3.35787 8.16112 3.33609 8.09125C3.31334 8.01848 3.263 7.97511 3.24993 7.96354C3.15651 7.87969 1.82972 6.59444 0 4.82246C2.54079 4.45525 4.38358 4.18923 4.49781 4.1767C4.51282 4.17526 4.56897 4.16996 4.6227 4.13237C4.68272 4.08996 4.70644 4.0302 4.71273 4.01623C4.7592 3.90876 5.57435 2.26786 6.70316 0C7.39293 1.38742 8.08271 2.77531 8.77248 4.16273C10.2895 4.37573 11.8152 4.59018 13.3371 4.80415C11.5229 6.5954 10.2256 7.87198 10.1365 7.94523C10.1269 7.95294 10.0804 7.98908 10.0572 8.05173C10.0315 8.12016 10.0465 8.18329 10.0499 8.1992C10.0746 8.31534 10.3791 10.1292 10.7982 12.6318C10.7281 12.5961 10.5983 12.5301 10.4367 12.4472C8.58322 11.4959 7.65674 11.0203 7.39245 10.8323C7.28015 10.7523 7.16882 10.7138 6.96358 10.6015C6.87064 10.5509 6.78399 10.5254 6.69783 10.5249C6.55746 10.5244 6.45242 10.5861 6.4195 10.6054C6.21717 10.7225 4.68224 11.5258 2.56693 12.6342Z" fill="#F14530"/>
</g>
<g clip-path="url(#clip1_0_597)">
<path d="M17.4425 12.6342C17.898 10.1553 18.2287 8.35967 18.2562 8.23823C18.2598 8.22233 18.275 8.16112 18.2521 8.09125C18.2282 8.01848 18.1752 7.97511 18.1614 7.96354C18.0631 7.87969 16.6665 6.59444 14.7404 4.82246C17.415 4.45525 19.3547 4.18923 19.475 4.1767C19.4908 4.17526 19.5499 4.16996 19.6064 4.13237C19.6696 4.08996 19.6946 4.0302 19.7012 4.01623C19.7501 3.90876 20.6082 2.26786 21.7964 0C22.5225 1.38742 23.2486 2.77531 23.9746 4.16273C25.5715 4.37573 27.1775 4.59018 28.7795 4.80415C26.8698 6.5954 25.5042 7.87198 25.4105 7.94523C25.4003 7.95294 25.3514 7.98908 25.3269 8.05173C25.2999 8.12016 25.3157 8.18329 25.3193 8.1992C25.3453 8.31534 25.6658 10.1292 26.107 12.6318C26.0331 12.5961 25.8966 12.5301 25.7264 12.4472C23.7754 11.4959 22.8002 11.0203 22.522 10.8323C22.4038 10.7523 22.2866 10.7138 22.0705 10.6015C21.9727 10.5509 21.8815 10.5254 21.7908 10.5249C21.643 10.5244 21.5325 10.5861 21.4978 10.6054C21.2848 10.7225 19.6691 11.5258 17.4425 12.6342Z" fill="#F14530"/>
</g>
<g clip-path="url(#clip2_0_597)">
<path d="M32.7495 12.6342C33.1822 10.1553 33.4964 8.35967 33.5225 8.23823C33.5259 8.22233 33.5404 8.16112 33.5187 8.09125C33.4959 8.01848 33.4456 7.97511 33.4325 7.96354C33.3391 7.87969 32.0123 6.59444 30.1826 4.82246C32.7234 4.45525 34.5661 4.18923 34.6804 4.1767C34.6954 4.17526 34.7515 4.16996 34.8053 4.13237C34.8653 4.08996 34.889 4.0302 34.8953 4.01623C34.9418 3.90876 35.7569 2.26786 36.8857 0C37.5755 1.38742 38.2653 2.77531 38.955 4.16273C40.4721 4.37573 41.9978 4.59018 43.5197 4.80415C41.7054 6.5954 40.4082 7.87198 40.3191 7.94523C40.3094 7.95294 40.263 7.98908 40.2397 8.05173C40.2141 8.12016 40.2291 8.18329 40.2325 8.1992C40.2571 8.31534 40.5616 10.1292 40.9808 12.6318C40.9106 12.5961 40.7809 12.5301 40.6192 12.4472C38.7658 11.4959 37.8393 11.0203 37.575 10.8323C37.4627 10.7523 37.3514 10.7138 37.1461 10.6015C37.0532 10.5509 36.9666 10.5254 36.8804 10.5249C36.74 10.5244 36.635 10.5861 36.6021 10.6054C36.3997 10.7225 34.8648 11.5258 32.7495 12.6342Z" fill="#F14530"/>
</g>
<g clip-path="url(#clip3_0_597)">
<path d="M48.1661 11.7079C48.3076 10.8978 48.4308 10.1934 48.528 9.63979C48.5959 9.25291 48.6511 8.94007 48.6909 8.71651C48.7108 8.60467 48.7268 8.51566 48.7385 8.45108L48.7527 8.37405L48.757 8.35164C48.7574 8.3496 48.7577 8.34805 48.7579 8.34693C48.7584 8.34474 48.7585 8.34421 48.7583 8.34485L48.7586 8.34382C48.7584 8.34444 48.7629 8.32428 48.7668 8.30096C48.7708 8.27691 48.7747 8.24635 48.7765 8.21087C48.7801 8.14082 48.7757 8.04582 48.7429 7.94045L48.7427 7.94004C48.6777 7.7321 48.5397 7.61121 48.5113 7.58633C48.5103 7.58546 48.5095 7.58471 48.5087 7.58408L48.1729 7.96354C48.0875 7.88689 46.9716 6.80642 45.383 5.26796C45.6004 5.23655 45.8119 5.20599 46.0168 5.17638C46.6178 5.75837 47.1406 6.26452 47.5513 6.66181C47.8373 6.93841 48.0688 7.16199 48.2345 7.32157C48.3174 7.4014 48.3835 7.46488 48.4316 7.51084L48.4891 7.56559L48.5061 7.58149C48.5096 7.5848 48.5112 7.5863 48.5115 7.58654C48.5116 7.58661 48.5115 7.58657 48.5114 7.58644L48.1661 11.7079ZM48.1661 11.7079C49.8017 10.8508 50.9218 10.2631 51.0875 10.1675L48.1661 11.7079Z" stroke="#F14530"/>
</g>
<g clip-path="url(#clip4_0_597)">
<path d="M62.9065 11.7079C63.048 10.8978 63.1712 10.1934 63.2684 9.63979C63.3364 9.25291 63.3915 8.94007 63.4313 8.71651C63.4512 8.60467 63.4672 8.51566 63.479 8.45108L63.4932 8.37405L63.4974 8.35164C63.4978 8.3496 63.4981 8.34805 63.4984 8.34693C63.4988 8.34474 63.4989 8.34421 63.4988 8.34485L63.499 8.34382C63.4989 8.34444 63.5034 8.32428 63.5072 8.30096C63.5112 8.27691 63.5151 8.24635 63.517 8.21087C63.5205 8.14082 63.5161 8.04582 63.4833 7.94045L63.4832 7.94004C63.4182 7.7321 63.2801 7.61121 63.2517 7.58633C63.2508 7.58546 63.2499 7.58471 63.2492 7.58408L62.9134 7.96354C62.828 7.88689 61.712 6.80642 60.1235 5.26796C60.3408 5.23655 60.5523 5.20599 60.7573 5.17638C61.3582 5.75837 61.881 6.26452 62.2918 6.66181C62.5778 6.93841 62.8092 7.16199 62.975 7.32157C63.0578 7.4014 63.1239 7.46488 63.172 7.51084L63.2296 7.56559L63.2465 7.58149C63.25 7.5848 63.2517 7.5863 63.2519 7.58654C63.252 7.58661 63.252 7.58657 63.2518 7.58644L62.9065 11.7079ZM62.9065 11.7079C64.5422 10.8508 65.6623 10.2631 65.828 10.1675L62.9065 11.7079Z" stroke="#F14530"/>
</g>
<defs>
<clipPath id="clip0_0_597">
<rect width="13.1597" height="12.4671" fill="white" transform="scale(1.01344)"/>
</clipPath>
<clipPath id="clip1_0_597">
<rect width="13.8523" height="12.4671" fill="white" transform="translate(14.7404) scale(1.01344)"/>
</clipPath>
<clipPath id="clip2_0_597">
<rect width="13.1597" height="12.4671" fill="white" transform="translate(30.1826) scale(1.01344)"/>
</clipPath>
<clipPath id="clip3_0_597">
<rect width="13.1597" height="12.4671" fill="white" transform="translate(44.923) scale(1.01344)"/>
</clipPath>
<clipPath id="clip4_0_597">
<rect width="13.1597" height="12.4671" fill="white" transform="translate(59.6634) scale(1.01344)"/>
</clipPath>
</defs>
</svg>
