<svg width="22" height="21" viewBox="0 0 22 21" fill="none" xmlns="http://www.w3.org/2000/svg">
<path d="M21.6489 9.66229L12.7364 0.691048C12.7249 0.679501 12.7131 0.668295 12.701 0.657432C11.7278 -0.216371 10.2572 -0.219493 9.28033 0.650204C9.26818 0.661025 9.25638 0.672187 9.24487 0.683649L0.251132 9.65968C-0.0832324 9.99345 -0.0837884 10.535 0.249934 10.8694C0.583699 11.2038 1.12528 11.2043 1.4596 10.8706L2.13842 10.1931V17.5785C2.13842 19.4651 3.67329 21 5.5599 21H8.63923C9.11165 21 9.4946 20.6171 9.4946 20.1446V13.1734H12.4884V20.1446C12.4884 20.6171 12.8713 21 13.3438 21H16.3376C18.2242 21 19.759 19.4651 19.759 17.5785C19.759 17.1061 19.3761 16.7232 18.9037 16.7232C18.4312 16.7232 18.0483 17.1061 18.0483 17.5785C18.0483 18.5218 17.2809 19.2893 16.3376 19.2893H14.1991V12.318C14.1991 11.8456 13.8162 11.4626 13.3438 11.4626H8.63923C8.16681 11.4626 7.78386 11.8456 7.78386 12.318V19.2893H5.5599C4.6166 19.2893 3.84916 18.5218 3.84916 17.5785V8.51161C3.84916 8.50305 3.84903 8.49454 3.84877 8.48607L10.4332 1.91465C10.5882 1.78293 10.7851 1.71081 10.9885 1.71124C11.1919 1.71167 11.3885 1.78463 11.5429 1.91701L18.0483 8.46529V13.3017C18.0483 13.7741 18.4312 14.157 18.9037 14.157C19.3761 14.157 19.759 13.7741 19.759 13.3017V10.1873L20.4353 10.868C20.5147 10.9482 20.6092 11.0118 20.7134 11.0551C20.8175 11.0984 20.9293 11.1207 21.0421 11.1205C21.268 11.1208 21.4849 11.0314 21.645 10.872C21.9801 10.539 21.9819 9.99743 21.6489 9.66229Z" fill="white"/>
</svg>
