<svg width="23" height="22" viewBox="0 0 23 22" fill="none" xmlns="http://www.w3.org/2000/svg">
<path d="M8.33244 17.9609L1.02339 17.9609" stroke="#F14530" stroke-width="2" stroke-linecap="round"/>
<path d="M21.4889 17.9609L8.33281 17.9609" stroke="#FE724C" stroke-opacity="0.25" stroke-width="2" stroke-linecap="round"/>
<path d="M11.4879 17.8217C11.4879 15.9379 9.98426 14.4109 8.12945 14.4109C6.27465 14.4109 4.77103 15.9379 4.77103 17.8217C4.77103 19.7055 6.27465 21.2326 8.12945 21.2326C9.98426 21.2326 11.4879 19.7055 11.4879 17.8217Z" fill="#F14530" stroke="#F14530" stroke-width="1.5"/>
<path d="M14.1867 4.03906L21.4957 4.03906" stroke="#F14530" stroke-width="2" stroke-linecap="round"/>
<path d="M1.03025 4.03906L14.1863 4.03906" stroke="#FE724C" stroke-opacity="0.25" stroke-width="2" stroke-linecap="round"/>
<path d="M11.0312 4.1783C11.0312 6.06206 12.5349 7.58915 14.3897 7.58915C16.2445 7.58915 17.7481 6.06206 17.7481 4.17829C17.7481 2.29453 16.2445 0.767442 14.3897 0.767442C12.5349 0.767443 11.0312 2.29453 11.0312 4.1783Z" fill="#F14530" stroke="#F14530" stroke-width="1.5"/>
</svg>
