<svg width="21" height="21" viewBox="0 0 21 21" fill="none" xmlns="http://www.w3.org/2000/svg">
<path d="M18.9476 7.7H18.858C18.7267 7.69884 18.5987 7.65815 18.4909 7.58324C18.383 7.50832 18.3002 7.40265 18.2532 7.28C18.2038 7.16156 18.1907 7.03109 18.2156 6.90519C18.2405 6.77929 18.3024 6.66366 18.3932 6.573L18.4569 6.5093C18.8409 6.12384 19.0565 5.60193 19.0565 5.05785C19.0565 4.51377 18.8409 3.99186 18.4569 3.6064L17.3992 2.5494C17.014 2.16512 16.4922 1.9493 15.9481 1.9493C15.404 1.9493 14.8822 2.16512 14.497 2.5494L14.4333 2.6131C14.3394 2.70348 14.2213 2.7645 14.0932 2.78866C13.9652 2.81283 13.8329 2.7991 13.7126 2.74915C13.5922 2.6992 13.4891 2.61521 13.4158 2.50748C13.3425 2.39975 13.3023 2.27297 13.3 2.1427V2.0524C13.2994 1.50824 13.083 0.986527 12.6983 0.601748C12.3135 0.216969 11.7918 0.000555927 11.2476 0H9.7524C9.20824 0.000555927 8.68653 0.216969 8.30175 0.601748C7.91697 0.986527 7.70056 1.50824 7.7 2.0524V2.1427C7.69659 2.27204 7.65576 2.39761 7.58245 2.50423C7.50914 2.61084 7.4065 2.69391 7.28695 2.74339C7.1674 2.79287 7.03607 2.80663 6.90886 2.78301C6.78165 2.75939 6.66402 2.6994 6.5702 2.6103L6.51 2.5466C6.12484 2.16232 5.60298 1.9465 5.0589 1.9465C4.51482 1.9465 3.99296 2.16232 3.6078 2.5466L2.5466 3.6036C2.16261 3.98906 1.94702 4.51097 1.94702 5.05505C1.94702 5.59913 2.16261 6.12104 2.5466 6.5065L2.6103 6.5702C2.70204 6.66406 2.76344 6.78333 2.78653 6.91252C2.80963 7.04172 2.79334 7.17487 2.7398 7.2947C2.69176 7.41405 2.60923 7.51636 2.50274 7.58856C2.39625 7.66076 2.27065 7.69956 2.142 7.7H2.0524C1.50824 7.70056 0.986527 7.91697 0.601748 8.30175C0.216969 8.68653 0.000555927 9.20824 0 9.7524V11.2476C0.000555927 11.7918 0.216969 12.3135 0.601748 12.6983C0.986527 13.083 1.50824 13.2994 2.0524 13.3H2.142C2.27333 13.3012 2.40127 13.3418 2.50915 13.4168C2.61702 13.4917 2.69984 13.5973 2.7468 13.72C2.79624 13.8384 2.80933 13.9689 2.7844 14.0948C2.75947 14.2207 2.69765 14.3363 2.6068 14.427L2.5431 14.4907C2.15911 14.8762 1.94352 15.3981 1.94352 15.9422C1.94352 16.4862 2.15911 17.0081 2.5431 17.3936L3.6001 18.4499C3.9852 18.8346 4.50724 19.0506 5.05155 19.0506C5.59586 19.0506 6.1179 18.8346 6.503 18.4499L6.5667 18.3862C6.66061 18.2945 6.77987 18.2332 6.90905 18.2101C7.03822 18.187 7.17136 18.2033 7.2912 18.2567C7.41055 18.3045 7.51289 18.3869 7.5851 18.4933C7.65732 18.5997 7.69611 18.7252 7.6965 18.8538V18.9441C7.69632 19.2141 7.74937 19.4816 7.85262 19.7311C7.95587 19.9806 8.1073 20.2073 8.29825 20.3983C8.48919 20.5892 8.71591 20.7406 8.96542 20.8439C9.21494 20.9471 9.48236 21.0002 9.7524 21H11.2476C11.7918 20.9994 12.3135 20.783 12.6983 20.3983C13.083 20.0135 13.2994 19.4918 13.3 18.9476V18.8573C13.3034 18.728 13.3442 18.6024 13.4176 18.4958C13.4909 18.3892 13.5935 18.3061 13.7131 18.2566C13.8326 18.2071 13.9639 18.1934 14.0911 18.217C14.2183 18.2406 14.336 18.3006 14.4298 18.3897L14.4935 18.4534C14.8787 18.8377 15.4005 19.0535 15.9446 19.0535C16.4887 19.0535 17.0105 18.8377 17.3957 18.4534L18.4534 17.3971C18.8374 17.0116 19.053 16.4897 19.053 15.9456C19.053 15.4016 18.8374 14.8797 18.4534 14.4942L18.3897 14.4305C18.298 14.3366 18.2366 14.2174 18.2135 14.0882C18.1904 13.959 18.2067 13.8258 18.2602 13.706C18.3081 13.5865 18.3906 13.4841 18.4971 13.4117C18.6036 13.3394 18.7293 13.3005 18.858 13.3H18.9476C19.4918 13.2994 20.0135 13.083 20.3983 12.6983C20.783 12.3135 20.9994 11.7918 21 11.2476V9.7524C20.9994 9.20824 20.783 8.68653 20.3983 8.30175C20.0135 7.91697 19.4918 7.70056 18.9476 7.7ZM19.6 11.2476C19.5998 11.4206 19.531 11.5864 19.4087 11.7087C19.2864 11.831 19.1206 11.8998 18.9476 11.9H18.858C18.4518 11.9035 18.0556 12.0264 17.7188 12.2535C17.3819 12.4806 17.1194 12.8019 16.964 13.1772C16.8085 13.5525 16.7669 13.9652 16.8444 14.364C16.922 14.7628 17.1151 15.1299 17.3999 15.4196L17.4629 15.4833C17.5851 15.6059 17.6537 15.7719 17.6537 15.9449C17.6537 16.118 17.5851 16.284 17.4629 16.4066L16.4052 17.4629C16.2829 17.5852 16.1169 17.654 15.9439 17.654C15.7709 17.654 15.6049 17.5852 15.4826 17.4629L15.4196 17.3992C15.1298 17.1148 14.7627 16.9219 14.364 16.8445C13.9653 16.7672 13.5528 16.8088 13.1776 16.9643C12.8024 17.1197 12.4813 17.382 12.2541 17.7186C12.0269 18.0552 11.9038 18.4512 11.9 18.8573V18.9476C11.8998 19.1206 11.831 19.2864 11.7087 19.4087C11.5864 19.531 11.4206 19.5998 11.2476 19.6H9.7524C9.57943 19.5998 9.4136 19.531 9.29129 19.4087C9.16898 19.2864 9.10019 19.1206 9.1 18.9476V18.8573C9.09803 18.4504 8.97594 18.0532 8.74905 17.7154C8.52215 17.3776 8.20056 17.1144 7.82462 16.9587C7.44868 16.8031 7.03514 16.7619 6.63588 16.8404C6.23663 16.9189 5.86944 17.1135 5.5804 17.3999L5.5167 17.4636C5.39417 17.5856 5.22831 17.6541 5.0554 17.6541C4.88249 17.6541 4.71663 17.5856 4.5941 17.4636L3.5371 16.4073C3.41489 16.2847 3.34626 16.1187 3.34626 15.9456C3.34626 15.7726 3.41489 15.6066 3.5371 15.484L3.6008 15.4203C3.88584 15.1306 4.07924 14.7633 4.15687 14.3644C4.2345 13.9654 4.19293 13.5525 4.03734 13.177C3.88175 12.8015 3.61902 12.4802 3.28196 12.2531C2.9449 12.026 2.54842 11.9032 2.142 11.9H2.0524C1.87943 11.8998 1.7136 11.831 1.59129 11.7087C1.46898 11.5864 1.40019 11.4206 1.4 11.2476V9.7524C1.40019 9.57943 1.46898 9.4136 1.59129 9.29129C1.7136 9.16898 1.87943 9.10019 2.0524 9.1H2.142C2.54822 9.09654 2.94443 8.97359 3.28124 8.74648C3.61805 8.51936 3.88056 8.19813 4.03604 7.82283C4.19152 7.44753 4.23309 7.03477 4.15557 6.636C4.07804 6.23724 3.88486 5.87011 3.6001 5.5804L3.5371 5.5167C3.41493 5.39426 3.34632 5.22836 3.34632 5.0554C3.34632 4.88244 3.41493 4.71654 3.5371 4.5941L4.5941 3.5364C4.71645 3.41406 4.88238 3.34533 5.0554 3.34533C5.22842 3.34533 5.39435 3.41406 5.5167 3.5364L5.5797 3.6001C5.86946 3.88472 6.23656 4.07781 6.63527 4.1553C7.03398 4.2328 7.44667 4.19128 7.82196 4.03591C8.19724 3.88054 8.51851 3.6182 8.74577 3.28156C8.97303 2.94492 9.09622 2.54885 9.1 2.1427V2.0524C9.10019 1.87943 9.16898 1.7136 9.29129 1.59129C9.4136 1.46898 9.57943 1.40019 9.7524 1.4H11.2476C11.4206 1.40019 11.5864 1.46898 11.7087 1.59129C11.831 1.7136 11.8998 1.87943 11.9 2.0524V2.1427C11.9036 2.54886 12.0266 2.94497 12.2538 3.28168C12.481 3.61838 12.8022 3.88079 13.1775 4.03618C13.5528 4.19157 13.9655 4.23308 14.3642 4.15554C14.7629 4.07799 15.1299 3.88482 15.4196 3.6001L15.4833 3.5364C15.6056 3.41406 15.7716 3.34533 15.9446 3.34533C16.1176 3.34533 16.2836 3.41406 16.4059 3.5364L17.4629 4.5941C17.5851 4.71654 17.6537 4.88244 17.6537 5.0554C17.6537 5.22836 17.5851 5.39426 17.4629 5.5167L17.3992 5.5804C17.1144 5.87016 16.9212 6.23735 16.8437 6.63618C16.7662 7.035 16.8078 7.44782 16.9634 7.82315C17.119 8.19848 17.3816 8.5197 17.7185 8.74676C18.0554 8.97383 18.4517 9.09668 18.858 9.1H18.9476C19.1206 9.10019 19.2864 9.16898 19.4087 9.29129C19.531 9.4136 19.5998 9.57943 19.6 9.7524V11.2476Z" fill="white"/>
<path d="M10.4996 5.59888C9.53048 5.59888 8.58312 5.88626 7.77732 6.42468C6.97152 6.96309 6.34347 7.72837 5.9726 8.62373C5.60173 9.51909 5.5047 10.5043 5.69376 11.4548C5.88283 12.4053 6.34951 13.2784 7.03479 13.9637C7.72007 14.649 8.59316 15.1157 9.54367 15.3047C10.4942 15.4938 11.4794 15.3968 12.3748 15.0259C13.2701 14.655 14.0354 14.027 14.5738 13.2212C15.1122 12.4154 15.3996 11.468 15.3996 10.4989C15.3981 9.19977 14.8814 7.9543 13.9628 7.03569C13.0442 6.11708 11.7987 5.60036 10.4996 5.59888ZM10.4996 13.9989C9.80738 13.9989 9.13069 13.7936 8.55512 13.409C7.97954 13.0244 7.53094 12.4778 7.26603 11.8383C7.00113 11.1987 6.93181 10.495 7.06686 9.81606C7.20191 9.13713 7.53525 8.51349 8.02474 8.024C8.51422 7.53452 9.13786 7.20118 9.8168 7.06613C10.4957 6.93108 11.1995 7.00039 11.839 7.2653C12.4785 7.53021 13.0252 7.97881 13.4098 8.55438C13.7943 9.12995 13.9996 9.80664 13.9996 10.4989C13.9985 11.4268 13.6294 12.3164 12.9733 12.9725C12.3171 13.6287 11.4275 13.9978 10.4996 13.9989Z" fill="white"/>
</svg>
