<svg width="12" height="11" viewBox="0 0 12 11" fill="none" xmlns="http://www.w3.org/2000/svg">
<path fill-rule="evenodd" clip-rule="evenodd" d="M2.26445 7.31406C1.50936 7.31406 0.897234 7.92621 0.897234 8.68126C0.897234 9.43637 1.50936 10.0485 2.26445 10.0485C3.01954 10.0485 3.63166 9.43637 3.63166 8.68126C3.63166 7.92621 3.01954 7.31406 2.26445 7.31406ZM0 8.68126C0 7.43064 1.01383 6.41682 2.26445 6.41682C3.51507 6.41682 4.52889 7.43064 4.52889 8.68126C4.52889 9.93189 3.51507 10.9457 2.26445 10.9457C1.01383 10.9457 0 9.93189 0 8.68126Z" fill="#FFD726"/>
<path fill-rule="evenodd" clip-rule="evenodd" d="M9.73571 7.31406C8.98066 7.31406 8.36851 7.92621 8.36851 8.68126C8.36851 9.43637 8.98066 10.0485 9.73571 10.0485C10.4908 10.0485 11.1029 9.43637 11.1029 8.68126C11.1029 7.92621 10.4908 7.31406 9.73571 7.31406ZM7.47127 8.68126C7.47127 7.43064 8.48509 6.41682 9.73571 6.41682C10.9863 6.41682 12.0001 7.43064 12.0001 8.68126C12.0001 9.93189 10.9863 10.9457 9.73571 10.9457C8.48509 10.9457 7.47127 9.93189 7.47127 8.68126Z" fill="#FFD726"/>
<path d="M7.99112 0C7.31353 0 6.7643 0.549275 6.7643 1.22683C6.7643 1.90439 7.31353 2.45366 7.99112 2.45366C8.66865 2.45366 9.21794 1.90439 9.21794 1.22683C9.21794 0.549275 8.66865 0 7.99112 0Z" fill="#FFD726"/>
<path d="M1.22602 1.49606C0.647902 1.49606 0.179246 1.96471 0.179246 2.54283V4.39711C0.179246 4.97523 0.647902 5.44389 1.22602 5.44389H3.0803C3.65842 5.44389 4.12707 4.97523 4.12707 4.39711V2.54283C4.12707 1.96471 3.65842 1.49606 3.0803 1.49606H1.22602Z" fill="#FFD726"/>
<path fill-rule="evenodd" clip-rule="evenodd" d="M6.0494 3.0406C6.28077 2.63993 6.79309 2.50265 7.19373 2.73398C7.59444 2.96531 7.73171 3.47765 7.50041 3.87833L6.00849 6.4624C5.77712 6.86311 5.2648 7.00038 4.86409 6.76902C4.46344 6.53771 4.32616 6.02539 4.55749 5.62469L6.0494 3.0406Z" fill="#FFD726"/>
<path d="M10.3503 4.51307C10.5962 4.4834 10.8196 4.65872 10.8494 4.90468C10.879 5.15065 10.7037 5.37418 10.4577 5.40384L10.4565 5.40402L10.454 5.40432L10.4454 5.40528L10.4147 5.40869C10.3886 5.4115 10.3513 5.41533 10.3053 5.41958C10.2136 5.42795 10.0859 5.43812 9.94173 5.44488C9.66586 5.4578 9.28387 5.46115 8.98091 5.3975C8.27622 5.24946 7.69057 4.71297 7.31265 4.28637C7.11556 4.06395 6.95699 3.85058 6.84765 3.69297C6.79273 3.61388 6.74979 3.54808 6.72 3.50125C6.70511 3.47781 6.6935 3.45907 6.68537 3.44573L6.67574 3.42983L6.67286 3.42507L6.67197 3.42352L6.67149 3.42272C6.54552 3.20936 6.61628 2.9341 6.82964 2.80814C7.04282 2.68227 7.31768 2.75295 7.44377 2.96599L7.4449 2.96789L7.45083 2.97768C7.45645 2.98687 7.46536 3.00124 7.47732 3.02011C7.50131 3.05789 7.53762 3.11348 7.58481 3.18152C7.67962 3.31816 7.81642 3.50199 7.9842 3.69136C8.33598 4.0884 8.75804 4.43388 9.16538 4.51941C9.34818 4.55781 9.63158 4.56116 9.89968 4.5486C10.0275 4.54262 10.1415 4.53359 10.2233 4.52605C10.2641 4.52234 10.2967 4.51899 10.3187 4.5166L10.3433 4.51391L10.3491 4.51319L10.3503 4.51307Z" fill="#FFD726"/>
<path fill-rule="evenodd" clip-rule="evenodd" d="M4.66534 6.03633C4.83347 5.85431 5.1173 5.84306 5.29925 6.0112L6.88532 7.47633C7.02948 7.60948 7.07033 7.82087 6.98623 7.99816L5.78292 10.5345C5.67669 10.7584 5.40914 10.8538 5.18531 10.7476C4.96142 10.6413 4.86607 10.3738 4.97224 10.15L6.03421 7.91161L4.69046 6.67025C4.50846 6.50211 4.49722 6.21829 4.66534 6.03633Z" fill="#FFD726"/>
</svg>
