<svg width="21" height="21" viewBox="0 0 21 21" fill="none" xmlns="http://www.w3.org/2000/svg">
<g clip-path="url(#clip0_0_632)">
<path d="M19.3128 3.47443C17.0289 1.19113 13.3135 1.19113 11.0302 3.47443L10.4998 4.00446L9.96979 3.47443C7.68649 1.19082 3.97071 1.19082 1.68741 3.47443C-0.549529 5.71137 -0.564054 9.25716 1.65373 11.7225C3.67649 13.9703 9.64219 18.8264 9.8953 19.032C10.0602 19.1665 10.2666 19.2398 10.4794 19.2396L10.4995 19.2393C10.7121 19.2492 10.9263 19.1763 11.1037 19.032C11.3568 18.8264 17.3231 13.9703 19.3465 11.7222C21.564 9.25716 21.5495 5.71137 19.3128 3.47443ZM17.9681 10.4819C16.391 12.234 12.0559 15.8475 10.4995 17.1297C8.9431 15.8478 4.60891 12.2346 3.03211 10.4823C1.48498 8.76267 1.47046 6.31372 2.99843 4.78575C3.77879 4.00569 4.80362 3.61536 5.82845 3.61536C6.85327 3.61536 7.8781 4.00538 8.65847 4.78575L9.82422 5.9515C9.95919 6.0857 10.1333 6.17348 10.3215 6.20215C10.4733 6.23504 10.6309 6.22936 10.7799 6.18563C10.9289 6.1419 11.0646 6.06151 11.1745 5.95181L12.3409 4.78575C13.9019 3.22533 16.4411 3.22564 18.0012 4.78575C19.5292 6.31372 19.5147 8.76267 17.9681 10.4819Z" fill="white"/>
</g>
<defs>
<clipPath id="clip0_0_632">
<rect width="21" height="21" fill="white"/>
</clipPath>
</defs>
</svg>
