<svg width="40" height="40" viewBox="0 0 40 40" fill="none" xmlns="http://www.w3.org/2000/svg">
<path d="M34.7787 36.4963L32.5881 12.1004C32.5592 11.779 32.4112 11.4801 32.173 11.2623C31.9348 11.0446 31.6238 10.9239 31.3011 10.9239H26.7836V8.88644C26.7836 5.08926 23.6946 2 19.8976 2C16.1007 2 13.012 5.08926 13.012 8.88644V10.9239H8.49137C8.16868 10.9239 7.85767 11.0446 7.61951 11.2623C7.38134 11.4801 7.23326 11.779 7.20439 12.1004L5.00517 36.5922C4.98914 36.7709 5.0105 36.951 5.06789 37.121C5.12529 37.291 5.21745 37.4472 5.33852 37.5796C5.45959 37.712 5.60691 37.8177 5.77109 37.8901C5.93527 37.9624 6.11272 37.9998 6.29214 37.9998H33.504C33.6916 37.9998 33.8769 37.959 34.0471 37.8801C34.2173 37.8013 34.3683 37.6864 34.4896 37.5433C34.6109 37.4002 34.6996 37.2324 34.7495 37.0516C34.7995 36.8708 34.8094 36.6813 34.7787 36.4963ZM15.5963 8.88644C15.5963 6.51423 17.5259 4.58429 19.8977 4.58429C22.2698 4.58429 24.1995 6.51423 24.1995 8.88644V10.9239H15.5963V8.88644ZM7.70557 35.4157L9.67273 13.5082H13.012V15.8189C13.012 16.1616 13.1481 16.4902 13.3904 16.7326C13.6328 16.9749 13.9614 17.111 14.3041 17.111C14.6468 17.111 14.9755 16.9749 15.2178 16.7326C15.4601 16.4902 15.5963 16.1616 15.5963 15.8189V13.5082H24.1995V15.8189C24.1995 16.1616 24.3357 16.4902 24.578 16.7326C24.8203 16.9749 25.149 17.111 25.4917 17.111C25.8344 17.111 26.163 16.9749 26.4054 16.7326C26.6477 16.4902 26.7838 16.1616 26.7838 15.8189V13.5082H30.12L32.0871 35.4157H7.70557Z" fill="black"/>
</svg>
