<svg width="21" height="21" viewBox="0 0 21 21" fill="none" xmlns="http://www.w3.org/2000/svg">
<path d="M8.6277 10.1158C10.0174 10.1158 11.2206 9.61732 12.2041 8.63389C13.1872 7.65067 13.6857 6.4476 13.6857 5.05775C13.6857 3.66831 13.1873 2.46512 12.2039 1.48152C11.2205 0.498421 10.0172 0 8.6277 0C7.23781 0 6.0347 0.498421 5.05147 1.48169C4.06825 2.46495 3.56962 3.66818 3.56962 5.05775C3.56962 6.4476 4.06821 7.65083 5.05152 8.6341C6.03507 9.6172 7.2383 10.1158 8.62766 10.1158H8.6277ZM5.92178 2.35183C6.67622 1.59735 7.5613 1.23063 8.6277 1.23063C9.69394 1.23063 10.5791 1.59735 11.3337 2.35183C12.0882 3.10644 12.4551 3.99163 12.4551 5.05771C12.4551 6.12411 12.0882 7.00919 11.3337 7.76379C10.5791 8.51844 9.69394 8.88516 8.6277 8.88516C7.56158 8.88516 6.67659 8.51827 5.92178 7.76379C5.16714 7.00935 4.80025 6.12415 4.80025 5.05775C4.80025 3.99163 5.16714 3.10644 5.92178 2.35183ZM17.4779 16.1479C17.4495 15.7388 17.3922 15.2924 17.3077 14.821C17.2225 14.3461 17.1128 13.8972 16.9814 13.4869C16.8455 13.0628 16.6611 12.644 16.4328 12.2426C16.1961 11.8261 15.9181 11.4634 15.6059 11.1649C15.2796 10.8526 14.88 10.6016 14.4179 10.4184C13.9575 10.2363 13.4472 10.144 12.9013 10.144C12.6869 10.144 12.4796 10.2319 12.0792 10.4926C11.7946 10.678 11.5092 10.862 11.2229 11.0447C10.9478 11.22 10.5751 11.3842 10.1148 11.5329C9.66572 11.6782 9.20975 11.7519 8.75953 11.7519C8.30967 11.7519 7.85366 11.6782 7.40425 11.5329C6.94446 11.3844 6.57163 11.2202 6.29699 11.0449C5.9783 10.8412 5.68996 10.6554 5.43985 10.4924C5.03978 10.2318 4.83245 10.1438 4.6181 10.1438C4.07206 10.1438 3.56195 10.2362 3.10164 10.4186C2.63988 10.6014 2.24015 10.8525 1.91346 11.165C1.60137 11.4637 1.32324 11.8262 1.08675 12.2426C0.858783 12.644 0.674213 13.0626 0.538329 13.4871C0.407079 13.8974 0.297363 14.3461 0.212132 14.821C0.127517 15.2917 0.0703417 15.7383 0.0419589 16.1484C0.0140683 16.5494 0 16.9668 0 17.3885C0 18.4847 0.348468 19.3721 1.03564 20.0266C1.71433 20.6725 2.6122 21 3.70436 21H13.816C14.9078 21 15.8057 20.6725 16.4846 20.0267C17.1719 19.3726 17.5204 18.4849 17.5204 17.3883C17.5202 16.9652 17.506 16.5478 17.4779 16.1479ZM15.6361 19.135C15.1876 19.5618 14.5922 19.7693 13.8158 19.7693H3.7044C2.92785 19.7693 2.33247 19.5618 1.88417 19.1352C1.4444 18.7165 1.23067 18.1451 1.23067 17.3885C1.23067 16.995 1.24363 16.6065 1.26964 16.2335C1.2949 15.8676 1.34666 15.4656 1.42344 15.0384C1.4992 14.6166 1.59563 14.2207 1.71035 13.8623C1.82043 13.5186 1.97055 13.1783 2.15672 12.8505C2.3344 12.5381 2.53882 12.27 2.76441 12.0541C2.97543 11.8521 3.24142 11.6867 3.55478 11.5627C3.84459 11.448 4.17034 11.3852 4.52393 11.3757C4.567 11.3987 4.64378 11.4424 4.7681 11.5234C5.02108 11.6883 5.31266 11.8764 5.63504 12.0823C5.99844 12.314 6.46655 12.5232 7.02588 12.7037C7.59768 12.8886 8.18088 12.9825 8.75973 12.9825C9.33862 12.9825 9.92195 12.8886 10.4935 12.7039C11.0532 12.523 11.5212 12.314 11.8851 12.0819C12.215 11.8711 12.4984 11.6885 12.7514 11.5234C12.8757 11.4425 12.9525 11.3986 12.9956 11.3757C13.3493 11.3852 13.675 11.448 13.965 11.5627C14.2782 11.6867 14.5442 11.8522 14.7552 12.0541C14.9808 12.2699 15.1852 12.538 15.3629 12.8507C15.5492 13.1783 15.6996 13.5188 15.8094 13.8621C15.9243 14.221 16.0209 14.6168 16.0965 15.0383C16.1731 15.4662 16.2251 15.8684 16.2504 16.2337V16.234C16.2765 16.6055 16.2896 16.9939 16.2898 17.3885C16.2896 18.1452 16.0759 18.7166 15.6361 19.135H15.6361Z" fill="white"/>
</svg>
