<svg width="34" height="22" viewBox="0 0 34 22" fill="none" xmlns="http://www.w3.org/2000/svg">
<path d="M16.9611 10.1527L12.3516 8.22316V1.92659L16.9611 0L21.5253 1.93241V8.22316L16.9611 10.1527ZM13.9428 7.1566L16.9611 8.41708L19.9303 7.1566V2.99315L16.9611 1.73267L13.9428 2.99315V7.1566Z" fill="#F4D445"/>
<path d="M4.67808 9.97195C4.02427 9.97291 3.3759 9.85261 2.76555 9.61708C1.62305 9.173 0.66678 8.33915 0 7.20472L1.44164 6.34954C2.5494 8.23443 4.40789 8.50204 5.66233 8.15784C7.0258 7.78357 8.48287 6.53764 8.48287 4.16406H10.1571C10.1571 6.90027 8.56586 9.10901 6.10427 9.77997C5.6399 9.90803 5.16059 9.97325 4.67904 9.97389" fill="#2099AA"/>
<path d="M10.5419 0.279297H8.09863V2.19716H10.5419V0.279297Z" fill="#2099AA"/>
<path d="M28.4777 5.59846C28.3812 5.59846 28.277 5.59846 28.1757 5.5907C26.9885 5.53052 25.8512 5.0921 24.9286 4.33895C23.9434 3.52643 23.268 2.39006 22.9756 1.05104L24.6778 0.679688C24.8852 1.63086 25.3532 2.42496 26.0335 2.98927C26.6676 3.50592 27.4491 3.80615 28.2645 3.84639C29.7331 3.92202 31.5771 3.16768 32.3453 0.820279L34.0001 1.36713C33.1491 3.96759 31.0011 5.60233 28.4777 5.60233" fill="#EE452E"/>
<path d="M29.481 6.48242H27.4951V9.47848H29.481V6.48242Z" fill="#EE452E"/>
<path d="M32.7232 19.9739L31.9358 21.3313C30.1825 20.3006 29.041 19.2564 28.4881 18.1685C27.9352 19.2564 26.7936 20.3016 25.0403 21.3313L24.252 19.9739C25.6521 19.1507 27.3195 17.895 27.3195 16.589C27.3195 15.2829 25.6521 14.0273 24.252 13.2051L25.0403 11.8477C26.7936 12.8793 27.9352 13.9236 28.4881 15.0095C29.041 13.9236 30.1825 12.8764 31.9358 11.8477L32.7232 13.2051C31.3241 14.0273 29.6557 15.282 29.6557 16.589C29.6557 17.896 31.3241 19.1507 32.7232 19.9739Z" fill="black"/>
<path d="M8.92347 15.5899C8.75846 14.4477 8.29818 13.5479 7.55324 12.9196C6.50145 12.0324 4.93244 11.6998 2.77674 11.9073H1.02246V21.041H1.03501L1.02825 21.0865C1.98598 21.2382 2.95358 21.3182 3.9231 21.326C5.94949 21.326 7.46929 20.8955 8.45836 20.0384C9.23032 19.3674 9.66069 18.4424 9.69639 17.3565H9.71087V15.5899H8.92347ZM2.77674 13.354C4.58216 13.1601 5.87712 13.384 6.63654 14.0211C7.06884 14.3847 7.34674 14.9024 7.47798 15.5899H2.77674V13.354ZM7.41429 18.8109C6.57864 19.5332 4.95946 19.8251 2.77674 19.6593V17.3565H8.09265C8.06177 17.9693 7.83887 18.4473 7.41718 18.8109" fill="black"/>
<path d="M21.5253 21.155H12.3516V12.0137H21.5282L21.5253 21.155ZM13.9428 19.5523H19.9255V13.6164H13.9428V19.5523Z" fill="black"/>
</svg>
