<svg width="47" height="33" viewBox="0 0 47 33" fill="none" xmlns="http://www.w3.org/2000/svg">
<path d="M45.9383 19.0318L33.0947 31.8754C32.3868 32.5833 31.4592 32.9372 30.5314 32.9372C29.6036 32.9372 28.676 32.5833 27.9681 31.8754C26.5525 30.4597 26.5525 28.1645 27.9681 26.7488L34.6235 20.0936H3.625C1.62298 20.0936 0 18.4706 0 16.4686C0 14.4666 1.62298 12.8436 3.625 12.8436H34.6235L27.9681 6.1883C26.5525 4.77262 26.5525 2.47743 27.9681 1.06176C29.3839 -0.353919 31.6789 -0.353919 33.0947 1.06176L45.9383 13.9054C47.3539 15.3209 47.3539 17.6162 45.9383 19.0318Z" fill="black"/>
</svg>
