<svg width="20" height="20" viewBox="0 0 20 20" fill="none" xmlns="http://www.w3.org/2000/svg">
<g clip-path="url(#clip0_0_310)">
<path d="M13.5716 9.28627C13.5716 10.2335 13.1953 11.1419 12.5255 11.8117C11.8557 12.4814 10.9473 12.8577 10.0001 12.8577C9.05294 12.8577 8.14453 12.4814 7.47476 11.8117C6.80499 11.1419 6.42871 10.2335 6.42871 9.28627V4.28627C6.42871 3.33907 6.80499 2.43066 7.47476 1.76089C8.14453 1.09112 9.05294 0.714844 10.0001 0.714844C10.9473 0.714844 11.8557 1.09112 12.5255 1.76089C13.1953 2.43066 13.5716 3.33907 13.5716 4.28627V9.28627Z" stroke="#F14530" stroke-linecap="round" stroke-linejoin="round"/>
<path d="M17.1432 10C17.1447 10.8446 16.9794 11.6813 16.6569 12.4619C16.3343 13.2425 15.8609 13.9518 15.2636 14.549C14.6664 15.1463 13.9571 15.6198 13.1765 15.9423C12.3958 16.2648 11.5592 16.4301 10.7146 16.4286H9.28601C8.44127 16.4305 7.60447 16.2655 6.82367 15.9431C6.04287 15.6207 5.33345 15.1472 4.73612 14.5499C4.1388 13.9526 3.66535 13.2431 3.34295 12.4623C3.02055 11.6815 2.85555 10.8447 2.85744 10M10.0003 16.4286V19.2857" stroke="#F14530" stroke-linecap="round" stroke-linejoin="round"/>
</g>
<defs>
<clipPath id="clip0_0_310">
<rect width="20" height="20" fill="white"/>
</clipPath>
</defs>
</svg>
