<svg width="5" height="3" viewBox="0 0 5 3" fill="none" xmlns="http://www.w3.org/2000/svg">
<path d="M4.14654 1.95879C4.41915 1.9259 4.66677 2.12022 4.69972 2.39283C4.73261 2.66544 4.53822 2.91319 4.26561 2.94608L4.26429 2.94627L4.2615 2.94661L4.25202 2.94767L4.21801 2.95145C4.18904 2.95456 4.14774 2.9588 4.09675 2.96351C3.99512 2.97279 3.85358 2.98406 3.69374 2.99156C3.38798 3.00588 2.96461 3.00959 2.62881 2.93905C1.84777 2.77496 1.19866 2.18035 0.779797 1.70752C0.561349 1.461 0.385597 1.22451 0.264406 1.04982C0.203546 0.96216 0.155945 0.889234 0.122929 0.837331C0.106421 0.811356 0.0935602 0.790584 0.0845439 0.7758L0.0738702 0.758179L0.0706874 0.752902L0.0696935 0.751178L0.069163 0.750296C-0.0704578 0.513816 0.00797085 0.208725 0.244451 0.0691242C0.480733 -0.0703906 0.785366 0.00795204 0.925119 0.244074L0.92638 0.246176L0.932942 0.257035C0.939174 0.267218 0.949053 0.283143 0.962312 0.30406C0.988897 0.345933 1.02914 0.407549 1.08145 0.482954C1.18653 0.634403 1.33815 0.838153 1.52411 1.04804C1.914 1.4881 2.38179 1.87101 2.83327 1.96581C3.03587 2.00838 3.34999 2.01209 3.64713 1.99817C3.78881 1.99154 3.9151 1.98153 4.00586 1.97317C4.05108 1.96906 4.08721 1.96535 4.11154 1.9627L4.13885 1.95971L4.14522 1.95892L4.14654 1.95879Z" fill="#FFD726"/>
</svg>
