<svg width="25" height="25" viewBox="0 0 25 25" fill="none" xmlns="http://www.w3.org/2000/svg">
<path fill-rule="evenodd" clip-rule="evenodd" d="M12.5005 2.63656C17.9473 2.63656 22.3624 7.05191 22.3624 12.4985C22.3624 17.945 17.9473 22.3604 12.5005 22.3604C7.05392 22.3604 2.63856 17.945 2.63856 12.4985C2.63856 7.05191 7.05392 2.63656 12.5005 2.63656Z" stroke="#F14530" stroke-width="2.18473" stroke-linecap="round" stroke-linejoin="round"/>
<path d="M12.4997 1.12023V4.91327" stroke="#F14530" stroke-width="2.18473" stroke-linecap="round" stroke-linejoin="round"/>
<path d="M23.8795 12.4997H20.0864" stroke="#F14530" stroke-width="2.18473" stroke-linecap="round" stroke-linejoin="round"/>
<path d="M12.4997 23.8785V20.0854" stroke="#F14530" stroke-width="2.18473" stroke-linecap="round" stroke-linejoin="round"/>
<path d="M1.12023 12.4997H4.91327" stroke="#F14530" stroke-width="2.18473" stroke-linecap="round" stroke-linejoin="round"/>
<path fill-rule="evenodd" clip-rule="evenodd" d="M12.4991 10.2222C13.7561 10.2222 14.7749 11.2411 14.7749 12.4981C14.7749 13.7551 13.7561 14.7739 12.4991 14.7739C11.2423 14.7739 10.2232 13.7551 10.2232 12.4981C10.2232 11.2411 11.2423 10.2222 12.4991 10.2222Z" stroke="#F14530" stroke-width="2.18473" stroke-linecap="round" stroke-linejoin="round"/>
</svg>
