<svg xmlns="http://www.w3.org/2000/svg" xmlns:xlink="http://www.w3.org/1999/xlink" version="1.1" width="256" height="256" viewBox="0 0 256 256" xml:space="preserve">

<defs>
</defs>
<g style="stroke: none; stroke-width: 0; stroke-dasharray: none; stroke-linecap: butt; stroke-linejoin: miter; stroke-miterlimit: 10; fill: none; fill-rule: nonzero; opacity: 1;" transform="translate(45.02412451361867 45.02412451361867) scale(1.83 1.83)" >
	<path d="M 39.715 49.672 c 6.688 -9.337 12.414 -19.332 15.942 -28.24 h 16.646 c 2.209 0 4 -1.791 4 -4 s -1.791 -4 -4 -4 H 44.125 V 7.621 c 0 -2.209 -1.791 -4 -4 -4 s -4 1.791 -4 4 v 5.812 H 4 c -2.209 0 -4 1.791 -4 4 s 1.791 4 4 4 h 42.986 c -3.091 6.991 -7.543 14.638 -12.647 21.95 c -3.787 -4.914 -6.964 -10.194 -9.416 -15.704 c -0.897 -2.018 -3.262 -2.927 -5.281 -2.028 c -2.018 0.898 -2.926 3.263 -2.028 5.281 c 3.011 6.766 7.003 13.214 11.808 19.13 C 23.646 57.5 17.385 64.205 11.493 68.978 c -1.717 1.391 -1.981 3.909 -0.591 5.626 c 0.791 0.976 1.946 1.482 3.111 1.482 c 0.884 0 1.774 -0.292 2.515 -0.892 c 6.082 -4.926 12.425 -11.615 18.312 -19.049 c 2.204 2.266 4.531 4.433 6.979 6.478 c 0.749 0.625 1.658 0.93 2.563 0.93 c 1.145 0 2.281 -0.488 3.072 -1.436 c 1.416 -1.695 1.189 -4.218 -0.506 -5.635 C 44.39 54.346 41.977 52.066 39.715 49.672 z" style="stroke: none; stroke-width: 1; stroke-dasharray: none; stroke-linecap: butt; stroke-linejoin: miter; stroke-miterlimit: 10; fill: rgb(234,57,47); fill-rule: nonzero; opacity: 1;" transform=" matrix(1 0 0 1 0 0) " stroke-linecap="round" />
	<path d="M 70.81 28.333 c -10.581 0 -19.189 8.609 -19.189 19.19 v 34.855 c 0 2.209 1.791 4 4 4 s 4 -1.791 4 -4 V 62.939 H 82 v 19.439 c 0 2.209 1.791 4 4 4 s 4 -1.791 4 -4 V 47.523 C 90 36.942 81.392 28.333 70.81 28.333 z M 59.62 54.939 v -7.416 c 0 -6.17 5.02 -11.19 11.189 -11.19 c 6.171 0 11.19 5.02 11.19 11.19 v 7.416 H 59.62 z" style="stroke: none; stroke-width: 1; stroke-dasharray: none; stroke-linecap: butt; stroke-linejoin: miter; stroke-miterlimit: 10; fill: rgb(234,57,47); fill-rule: nonzero; opacity: 1;" transform=" matrix(1 0 0 1 0 0) " stroke-linecap="round" />
</g>
</svg>